<svg id="Camada_1" data-name="Camada 1" xmlns="http://www.w3.org/2000/svg" viewBox="0 0 420 130"><defs><style>.cls-1,.cls-5,.cls-6{fill:#231f20;}.cls-2{fill:#00a79d;}.cls-3{fill:#ef4136;}.cls-4{fill:#ffde17;}.cls-5{font-size:29.48px;font-family:FeltTipRoman, Felt Tip Roman;}.cls-6{font-size:35.61px;font-family:FeltTipRoman-Bold, Felt Tip Roman;font-weight:700;}</style></defs><title>Prancheta 1</title><path class="cls-1" d="M11.18,70.76c-.67-4,3.33-17.06,5-29.67l1.33-9.83c.88-5.43,1.74-10.12,3.41-13.29,2.15-3.66,5.44-3,9.48.42C40,26.05,48.65,45.44,51.68,44.78L80.84,16.42C87,12.26,90,14.74,90.37,18.37c1.61,16.14-.43,38.83.38,56a3.94,3.94,0,0,1-3.68,1.44c-4.34-.81-6.4-2.36-6.56-6.65-.33-10.21,1.83-26.87.91-35.31,0,0,.11-2.9-2-1.07S69.13,41.45,63.62,47c-5.11,5.12-10.78,12.45-13.44,12.62-2.69,1-6.35-3.78-8-6.23-3.67-5.44-9.41-19.44-12.34-19.6-2.83.16-3.74,3.3-4.33,6.83s-1.67,5.3-1.83,8.83a77.53,77.53,0,0,0-1,13c-.7,3.27-.87,9.07-3.34,11.12C17.81,74.88,11.84,74.71,11.18,70.76Z"/><path class="cls-1" d="M150.14,75.25c-.32,1.92-.8,4.3-4.33,4.3-3.69-.79-4-2.38-3.84-4.07.15-2,1.28-4.42-1.13-6.23C134.6,72,127.55,74.91,120,75a29.66,29.66,0,0,1-7.69-.9c-4.82-1.36-8.32-3-12.65-9.7-1.34-2-1.37-7.61-1.05-9,1.44-7,2.76-10.76,12.21-14.83a54.76,54.76,0,0,1,10.67-2.5c7-.57,13.58,3.11,19.19,5.83.7-7.33.86-13.5-4-20.17-2.14-2.67-3.14-3.68-9.34-4.33-5-.55-7.46,0-12.5,2.22-3.35,1.49-3.65,2.4-6.31,3.54-1.52,1.24-4.75,1.36-6.35.57a3.93,3.93,0,0,1-1.71-5.63c6.41-5.44,15.86-8.49,25.31-8.61a44.29,44.29,0,0,1,11.7,1.59,17.79,17.79,0,0,1,8.17,7.92c3.52,6.68,3,13.55,4.17,21.73-.35,9.48-.81,18.14-.81,18.14C149,64,150.46,72.53,150.14,75.25Z"/><path class="cls-1" d="M349,80.78c-7.95-3-12.51-5-18.61-9.5-5.55-3-12-15.87-10.48-32.09a121.9,121.9,0,0,0-13.06-3.36c-3-.56-8.57,1.12-12.68,2.61a30.21,30.21,0,0,1-1.86,11.38c-1.68,4.85-4.1,9.7-6.15,14.36-6,9.51-14.18,12.49-23.32,13.24a70.23,70.23,0,0,1-16.22-.19C236.09,74.7,224,58.64,223.65,44.78c-.31-12.75,9.52-22,19.59-28.53,4.47-2.8,11.92-5.59,17.33-5.78a44.47,44.47,0,0,1,24.61,7.46c4.48,3.17,6.16,7.65,7.46,12.12,3.73-.93,9.7-2.42,13.61-2.42,3.74,0,10.26,1.86,14.55,3.35l1.31-4.66C325.59,16.62,341,7.77,356,10.68c13.2,2.57,21.51,11.35,29.16,22.91a14.82,14.82,0,0,1,2.42,7.65c.37,6.15-1.12,12.5,3.36,16.78,7.83,4.85,19,8.58,17.9,20.14a3.06,3.06,0,0,1-2.42,2.62c-9.14-.75-14-13.06-23.5-13.06-3.17,4.66-6.63,10-12.66,11.83C363.84,83,355.93,81.47,349,80.78Z"/><path class="cls-1" d="M217.54,77a106.65,106.65,0,0,0-3.29-17.84c.8-13.77,2.26-30.28-9.7-38.51-7.37-4.36-15.11-8-22.9-7-5.73,1.64-12.41,2-16.38,8-6.36,9.18-9.39,24.26-2.87,34.58,5.57,9.18,11.19,18,25.61,19.5,7.83.67,11.57-1,16.16-4.56.46,2.18.9,4.39,1.23,6.4,4.5,18.52-7.7,28.36-17.53,23.66-6.22-3-8.78-14.19-14.15-14.2-12.91,0-1.32,22.44,15.24,24.26C205.73,113.1,218.79,104,217.54,77Z"/><path class="cls-2" d="M368.35,69.8c3.55-.93,8.31-6.88,9.48-11.89,1.85-6.43,2.76-15.15-2.42-22.76-6.9-7.09-14.14-13.65-24-14.21a16.14,16.14,0,0,0-9.7,2.06c-6.16,4.28-10.73,7.28-12.87,18.46-.56,6.16-.37,16,4.29,19.76,7.27,7.84,18.83,13.06,31.33,9.51Z"/><path class="cls-2" d="M265.76,67.78l6.75-2.16c6-2.31,13.58-18.31,12.11-27.15a23.17,23.17,0,0,0-6.52-12.68c-4.22-4.49-11.11-4.11-18.59-4.11-9.08.94-15,5.23-21.13,12.32a16.78,16.78,0,0,0-5.29,11.91c.67,6.29,2.75,13.18,9.92,18.29,5.62,4,8.5,4.25,15.58,4.25Z"/><path class="cls-1" d="M342.8,53.27l2.14-.62a12.45,12.45,0,0,0,3.89-8.16c0-1.71-1.13-2.65-2-3.83-1.52-1.08-2.6-1.24-5.41-1.24a10.63,10.63,0,0,0-6.59,3.71,6.32,6.32,0,0,0-1.24,3.38c-.45,2.31.61,4.08,2.76,5.64,1.51,1.09,2.32,1.21,4.46,1.21Z"/><path class="cls-1" d="M277.33,41.77l-1.49-1.66c-1.91-1.74-6.16-1.58-9,0-1.48.84-1.89,2.17-2.59,3.45-.3,1.83,0,2.88,1.24,5.41a10.63,10.63,0,0,0,6.22,4.31,6.32,6.32,0,0,0,3.58-.36c2.28-.6,3.4-2.32,3.87-4.93.33-1.84.09-2.62-.85-4.55Z"/><path class="cls-3" d="M189,67.37c-3.43.32-8.25-2.09-10.16-3.92a31.64,31.64,0,0,1-10.5-19.34,21.06,21.06,0,0,1,3.5-15.4A18.54,18.54,0,0,1,182.67,23c11.13-1.31,19.76,6.81,23.7,15.57,2.22,7,1.26,15.83-2.19,20.74C198.63,64.9,196.68,66.78,189,67.37Z"/><path class="cls-4" d="M138.7,51.83,136,49.59c-4.07-2.67-7.08-3.31-12.21-3.19a26.15,26.15,0,0,0-11.7,3.05c-5.28,3.28-6.75,8.12-5.09,11.83,2.17,5.06,7.22,5.89,12.67,6.12a33.4,33.4,0,0,0,17.9-3.69C142.25,60.54,140.84,54.92,138.7,51.83Z"/><text class="cls-5" transform="translate(223.34 112.01)">design</text><text class="cls-6" transform="translate(307.29 111.49)">system</text></svg>